# xmcd
#
# Track frame offsets:
#	150
#	23806
#	33248
#	50765
#	70813
#	79196
#	99139
#	120864
#	140216
#	154565
#	180676
#	192875
#	209504
#	224467
#
# Disc length: 3285 seconds
#
# Revision: 1
# Processed by: cddbd v1.5.2PL0 Copyright (c) Steve Scherf et al.
# Submitted via: audiograbber 1.80
#
DISCID=c00cd30e
DTITLE=The BluesGuys and The Guinness Horns - Wolga Blues
DYEAR=1900
DGENRE=
TTITLE0=Soul with a capital $
TTITLE1=Crosstown Traffic
TTITLE2=Over Africa
TTITLE3=Love rears its ugly head
TTITLE4=It's not the crime
TTITLE5=Just a gigolo - I ain't got nobody
TTITLE6=Regulate
TTITLE7=Baby Love
TTITLE8=Mr. Bojangles
TTITLE9=Remedy
TTITLE10=I got you (I feel good)
TTITLE11=Go faster
TTITLE12=Deeply dippy
TTITLE13=Flies and a blue Sky
EXTD=
EXTT0=
EXTT1=
EXTT2=
EXTT3=
EXTT4=
EXTT5=
EXTT6=
EXTT7=
EXTT8=
EXTT9=
EXTT10=
EXTT11=
EXTT12=
EXTT13=
PLAYORDER=
